<?xml version="1.0" encoding="utf-8"?>
<!-- Generator: Adobe Illustrator 16.0.0, SVG Export Plug-In . SVG Version: 6.00 Build 0)  -->
<!DOCTYPE svg PUBLIC "-//W3C//DTD SVG 1.1//EN" "http://www.w3.org/Graphics/SVG/1.1/DTD/svg11.dtd">
<svg version="1.1" xmlns="http://www.w3.org/2000/svg" xmlns:xlink="http://www.w3.org/1999/xlink" x="0px" y="0px" width="620px"
	 height="620px" viewBox="0 0 620 620" enable-background="new 0 0 620 620" xml:space="preserve">
<g id="嘴" display="none">
	<path display="inline" fill="#2B0B10" d="M254.5,455.25h107.25c0,0,7,61.25-51.75,59.75S254.5,455.25,254.5,455.25z"/>
	<polygon display="inline" fill="#FFFFFF" points="263.5,455.25 265.375,471.5 351.5,471.5 355.125,455.25 	"/>
	<path display="inline" fill="#FF1224" d="M273.666,499.751c0,0,4.583-7.348,13.167-9.014s16.917,2.967,23.167,2.884
		s7.417-2.863,19-3.28c11.584-0.417,17.334,10.076,17.334,10.076s-8.001,13.566-36.334,13.539
		C285.572,513.933,273.666,499.751,273.666,499.751z"/>
</g>
<g id="头">
	<circle fill="none" stroke="#FFFFFF" stroke-width="8" stroke-miterlimit="10" cx="310" cy="310.5" r="300"/>
	<g>
		<path fill="none" stroke="#FFFFFF" stroke-width="8" stroke-miterlimit="10" d="M130.5,353c0,0-46-69-29.75-145.75
			c18.083-76.583,64.5-128.75,122-148.531C330.834,25.333,396.5,75.5,396.5,75.5l-14-27c0,0,35.25,18.5,34.25,42.75
			C443.5,76.75,465,90,465,90l-14.5,13.5c0,0,59.666,21.833,69.333,90.833S497.364,353,497.364,353"/>
		<path fill="none" stroke="#FFFFFF" stroke-width="8" stroke-miterlimit="10" d="M450.458,473.32
			c-8.208,52.68-53.708,97.47-140.656,97.47c-65.514,0-105.75-37.83-113.333-49.997s-20.167-40.17-18.583-45.503"/>
		<path fill="none" stroke="#FFFFFF" stroke-width="8" stroke-miterlimit="10" d="M146.333,362.751
			c-27.833-21.334-33.18,4.371-31.917,17.124c1.25,12.625,9.083,41.25,22.833,61.875c4.428,6.642,7.2,7.047,13.125,11.875
			c5.293,4.313,6.55,12.457,11.375,16.625c1.928,1.665,14.105,4.533,16.333,5.251"/>
		<path fill="none" stroke="#FFFFFF" stroke-width="8" stroke-miterlimit="10" d="M482.121,362.751
			c27.834-21.334,33.181,4.371,31.918,17.124c-1.251,12.625-9.084,41.25-22.834,61.875c-4.428,6.642-7.199,7.047-13.125,11.875
			c-5.293,4.313-6.55,12.457-11.375,16.625c-1.928,1.665-14.105,4.533-16.334,5.251"/>
	</g>
	<path fill="none" stroke="#FFFFFF" stroke-width="5" stroke-miterlimit="10" d="M113.625,379.875"/>
	<path fill="none" stroke="#FFFFFF" stroke-width="5" stroke-miterlimit="10" d="M254.5,455.25h107.25c0,0,7,61.25-51.75,59.75
		S254.5,455.25,254.5,455.25z"/>
</g>
<g id="眼镜">
	<path fill="none" stroke="#FFFFFF" stroke-width="10" stroke-miterlimit="10" d="M288,384c0,6.627-5.373,12-12,12H165.25
		c-6.627,0-12-5.373-12-12v-70.5c0-6.627,5.373-12,12-12H276c6.627,0,12,5.373,12,12V384z"/>
	<path fill="none" stroke="#FFFFFF" stroke-width="10" stroke-miterlimit="10" d="M332.75,384c0,6.627,5.373,12,12,12H455.5
		c6.627,0,12-5.373,12-12v-70.5c0-6.627-5.373-12-12-12H344.75c-6.627,0-12,5.373-12,12V384z"/>
	<g>
		<path fill="#FFFFFF" d="M358.625,362.628c0,0-0.031-0.108-0.072-0.336c-0.03-0.222-0.081-0.623-0.095-1.054
			c-0.024-0.438-0.048-1.013-0.003-1.631c0.019-0.314,0.035-0.664,0.071-1.031c0.043-0.36,0.104-0.727,0.169-1.13
			c0.112-0.827,0.339-1.671,0.611-2.604c0.243-0.979,0.661-1.884,1.09-2.938c0.209-0.538,0.469-1.046,0.755-1.548
			c0.29-0.518,0.588-1.049,0.894-1.596c0.303-0.576,0.683-1.053,1.059-1.586c0.389-0.528,0.787-1.069,1.193-1.622
			c0.848-1.07,1.833-2.034,2.856-3.126c1.046-1.003,2.195-1.95,3.418-2.919c1.228-0.889,2.535-1.744,3.914-2.581
			c0.686-0.407,1.388-0.752,2.109-1.109c0.718-0.359,1.45-0.722,2.2-1.055c2.974-1.244,6.159-2.308,9.382-2.896
			c0.807-0.172,1.633-0.328,2.441-0.449c0.805-0.11,1.616-0.187,2.43-0.26c0.813-0.074,1.63-0.159,2.448-0.199l0.614-0.036
			l0.307-0.019l0.153-0.009l0.039-0.003l0.689,0.001l0.064,0.001l1.018,0.01c1.357,0.052,2.715,0.097,4.064,0.214
			c0.889,0.088,1.882,0.231,2.809,0.382c0.94,0.15,1.877,0.288,2.8,0.48c0.455,0.095,0.938,0.173,1.363,0.285
			c0.419,0.12,0.839,0.226,1.253,0.358c0.823,0.259,1.644,0.517,2.459,0.773c1.61,0.499,3.194,1.239,4.707,1.963
			c1.518,0.686,2.965,1.554,4.329,2.462c1.378,0.848,2.658,1.837,3.831,2.891c1.181,1.013,2.289,2.048,3.255,3.176
			c0.978,1.09,1.867,2.195,2.623,3.337c1.54,2.238,2.638,4.5,3.377,6.573c0.74,2.075,1.129,3.975,1.292,5.563
			c0.176,1.584,0.122,2.873,0.035,3.748c-0.034,0.438-0.108,0.793-0.146,1.016c-0.04,0.241-0.061,0.366-0.061,0.366l-1.598,0.828
			c0,0-0.038-0.062-0.112-0.18c-0.086-0.128-0.214-0.319-0.381-0.567c-0.352-0.496-0.892-1.214-1.646-2.079
			c-0.762-0.859-1.726-1.871-2.93-2.924c-0.615-0.513-1.232-1.096-1.972-1.608c-0.722-0.531-1.442-1.135-2.284-1.647
			c-0.815-0.546-1.664-1.113-2.609-1.596c-0.463-0.256-0.933-0.516-1.411-0.779c-0.482-0.254-1.001-0.458-1.51-0.695
			c-0.513-0.23-1.032-0.464-1.558-0.7c-0.53-0.224-1.093-0.393-1.646-0.596c-0.556-0.199-1.116-0.4-1.683-0.604
			c-0.563-0.213-1.165-0.334-1.753-0.509c-1.188-0.314-2.376-0.701-3.635-0.882c-0.623-0.115-1.25-0.23-1.88-0.346
			c-0.63-0.125-1.263-0.238-1.898-0.278c-1.271-0.123-2.552-0.248-3.838-0.373c-1.353-0.02-2.71-0.04-4.068-0.061l-1.018-0.028
			l-0.922,0.037l-1.984,0.084c-0.66,0.028-1.319,0.056-1.977,0.083c-0.655,0.041-1.302,0.138-1.95,0.203
			c-2.6,0.227-5.115,0.698-7.532,1.211c-1.193,0.313-2.366,0.62-3.515,0.921c-1.125,0.371-2.227,0.734-3.299,1.087
			c-1.036,0.436-2.059,0.839-3.029,1.265c-0.938,0.485-1.869,0.919-2.726,1.398c-1.689,0.994-3.212,1.958-4.476,2.929
			c-0.625,0.493-1.228,0.939-1.725,1.415c-0.52,0.454-0.983,0.885-1.372,1.301c-0.811,0.807-1.362,1.508-1.73,1.981
			c-0.189,0.239-0.293,0.409-0.385,0.529c-0.088,0.136-0.133,0.205-0.133,0.205L358.625,362.628z"/>
	</g>
	<g>
		<path fill="#FFFFFF" d="M185.125,362.628c0,0-0.031-0.108-0.072-0.336c-0.031-0.222-0.081-0.623-0.095-1.054
			c-0.023-0.438-0.048-1.013-0.002-1.631c0.018-0.314,0.034-0.664,0.071-1.031c0.043-0.36,0.104-0.727,0.169-1.13
			c0.112-0.827,0.339-1.671,0.611-2.604c0.244-0.979,0.662-1.884,1.09-2.938c0.209-0.538,0.469-1.046,0.755-1.548
			c0.29-0.518,0.588-1.049,0.894-1.596c0.302-0.576,0.682-1.053,1.058-1.586c0.389-0.528,0.787-1.069,1.194-1.622
			c0.847-1.07,1.833-2.034,2.856-3.126c1.046-1.003,2.196-1.95,3.418-2.919c1.228-0.889,2.535-1.744,3.914-2.581
			c0.686-0.407,1.388-0.752,2.109-1.109c0.719-0.359,1.45-0.722,2.201-1.055c2.973-1.244,6.158-2.308,9.381-2.896
			c0.806-0.172,1.633-0.328,2.442-0.449c0.805-0.11,1.616-0.187,2.429-0.26c0.813-0.074,1.629-0.159,2.448-0.199l0.614-0.036
			l0.307-0.019l0.153-0.009l0.039-0.003l0.69,0.001l0.063,0.001l1.019,0.01c1.357,0.052,2.714,0.097,4.064,0.214
			c0.888,0.088,1.882,0.231,2.808,0.382c0.94,0.15,1.877,0.288,2.8,0.48c0.455,0.095,0.937,0.173,1.363,0.285
			c0.419,0.12,0.839,0.226,1.252,0.358c0.824,0.259,1.644,0.517,2.459,0.773c1.611,0.499,3.195,1.239,4.708,1.963
			c1.517,0.686,2.964,1.554,4.33,2.462c1.378,0.848,2.658,1.837,3.831,2.891c1.181,1.013,2.289,2.048,3.254,3.176
			c0.979,1.09,1.867,2.195,2.624,3.337c1.54,2.238,2.637,4.5,3.376,6.573c0.741,2.075,1.129,3.975,1.292,5.563
			c0.176,1.584,0.122,2.873,0.035,3.748c-0.034,0.438-0.109,0.793-0.145,1.016c-0.04,0.241-0.061,0.366-0.061,0.366l-1.599,0.828
			c0,0-0.038-0.062-0.111-0.18c-0.086-0.128-0.214-0.319-0.381-0.567c-0.352-0.496-0.892-1.214-1.646-2.079
			c-0.762-0.859-1.725-1.871-2.93-2.924c-0.614-0.513-1.232-1.096-1.971-1.608c-0.722-0.531-1.442-1.135-2.284-1.647
			c-0.816-0.546-1.665-1.113-2.609-1.596c-0.463-0.256-0.934-0.516-1.411-0.779c-0.482-0.254-1.001-0.458-1.511-0.695
			c-0.512-0.23-1.031-0.464-1.557-0.7c-0.531-0.224-1.094-0.393-1.647-0.596c-0.555-0.199-1.117-0.4-1.683-0.604
			c-0.563-0.213-1.165-0.334-1.752-0.509c-1.188-0.314-2.375-0.701-3.635-0.882c-0.623-0.115-1.25-0.23-1.879-0.346
			c-0.629-0.125-1.262-0.238-1.898-0.278c-1.271-0.123-2.552-0.248-3.838-0.373c-1.353-0.02-2.71-0.04-4.068-0.061l-1.018-0.028
			l-0.922,0.037l-1.983,0.084c-0.661,0.028-1.32,0.056-1.977,0.083c-0.655,0.041-1.302,0.138-1.95,0.203
			c-2.6,0.227-5.115,0.698-7.532,1.211c-1.193,0.313-2.366,0.62-3.515,0.921c-1.125,0.371-2.227,0.734-3.298,1.087
			c-1.037,0.436-2.059,0.839-3.03,1.265c-0.938,0.485-1.87,0.919-2.726,1.398c-1.69,0.994-3.212,1.958-4.476,2.929
			c-0.624,0.493-1.227,0.939-1.724,1.415c-0.52,0.454-0.984,0.885-1.372,1.301c-0.811,0.807-1.363,1.508-1.731,1.981
			c-0.19,0.239-0.293,0.409-0.385,0.529c-0.087,0.136-0.132,0.205-0.132,0.205L185.125,362.628z"/>
	</g>
	<line fill="none" stroke="#FFFFFF" stroke-width="18" stroke-miterlimit="10" x1="288" y1="326.75" x2="332.75" y2="326.75"/>
	<line fill="none" stroke="#FFFFFF" stroke-width="18" stroke-miterlimit="10" x1="119.417" y1="345.438" x2="152.417" y2="326.5"/>
	<line fill="none" stroke="#FFFFFF" stroke-width="18" stroke-miterlimit="10" x1="467.5" y1="326.75" x2="504.5" y2="344"/>
</g>
<g id="头发" display="none">
	<path display="inline" fill="none" stroke="#000000" stroke-miterlimit="10" d="M128.615,349.983c0,0,25.385-42.983,34.385-69.733
		s12.167-52.583,12.167-52.583s4.333,7.833,4.083,23.083s-6.25,28-6.25,28s15.942-23.045,24.25-39.75
		c7.709-15.5,16.75-52.167,16.75-52.167s1.5,16.417-1.5,34.167s-9.667,37.667-9.667,37.667s16.833-10,35-32.5
		c14.667-17.667,25.333-41.333,25.333-41.333s3,12,0.167,27s-8.866,26.833-8.866,26.833s15.532-11.333,28.032-34.5
		s15.167-42.5,15.167-42.5s1.044,24.592-1.667,40.5s-12.833,37.167-12.833,37.167s12.083-6.271,26.833-23.302S321.5,187,321.5,187
		s2.625,13.125-0.875,29.5S310,245.333,310,245.333s24.024-20.54,31.167-28.667c15.396-16.729,25.667-36,25.667-36
		S366.5,194.333,360.5,211.5s-14.166,30.375-14.166,30.375S382.666,202.333,394.25,181s17.5-47,17.5-47"/>
	<path display="inline" fill="none" stroke="#000000" stroke-miterlimit="10" d="M406.982,150.606c0,0,10.435,39.06,19.768,63.894
		s43.75,87,43.75,87s-3.503-12.671-4.25-24.25c-0.753-11.673,1.25-22.252,1.25-21.75c0,0.556,1.139,16.844,4.25,31
		c2.484,11.302,13.438,28.625,13.438,28.625s-4.277-13.98-3.688-19.375c0.813-7.438,4-10.417,4-10.417s-1.906,9.806,5.844,29.042
		c3.605,8.948,10.406,17.875,10.406,17.875"/>
</g>
<g id="头发线" display="none">
	<g display="inline">
		<g>
			<path fill="none" stroke="#000000" stroke-width="4" stroke-miterlimit="10" d="M346.334,241.875
				c0,0,36.332-39.542,47.916-60.875s17.5-47,17.5-47"/>
			<path fill="none" stroke="#000000" stroke-width="5" stroke-miterlimit="10" d="M255.069,237.42
				c-0.379,0.811-0.602,1.247-0.602,1.247s15.532-11.333,28.032-34.5s15.167-42.5,15.167-42.5"/>
			<path fill="none" stroke="#000000" stroke-width="5" stroke-miterlimit="10" d="M173.637,277.275
				c-0.393,0.955-0.637,1.475-0.637,1.475s15.942-23.045,24.25-39.75c7.709-15.5,16.75-52.167,16.75-52.167"/>
			<path fill="none" stroke="#000000" stroke-width="5" stroke-miterlimit="10" d="M406.982,150.606c0,0,10.851,78,49.851,123.667"
				/>
		</g>
		<path fill="none" stroke="#000000" stroke-width="5" stroke-miterlimit="10" d="M310,245.333c0,0,24.024-20.54,31.167-28.667
			c15.396-16.729,25.667-36,25.667-36"/>
		<path fill="none" stroke="#000000" stroke-width="5" stroke-miterlimit="10" d="M283.92,237.706
			c-0.476,1.045-0.753,1.628-0.753,1.628s10.666-3.302,26.833-23.302S321.5,187,321.5,187"/>
		<path fill="none" stroke="#000000" stroke-width="5" stroke-miterlimit="10" d="M202.833,258.667c0,0,16.833-10,35-32.5
			c14.667-17.667,25.333-41.333,25.333-41.333"/>
	</g>
</g>
</svg>
